<svg xmlns="http://www.w3.org/2000/svg" xmlns:xlink="http://www.w3.org/1999/xlink" viewBox="0 0 3861.49 1191.69"><defs><style>.cls-1,.cls-8{fill:none;}.cls-2{isolation:isolate;}.cls-3{fill:#5c1217;}.cls-4{fill:#7f1b1d;}.cls-5{fill:#a72427;}.cls-6{fill:#ba3633;}.cls-7{clip-path:url(#clip-path);}.cls-8{stroke:#f9f5e4;stroke-miterlimit:10;stroke-width:18px;stroke-dasharray:35.13 12.04;}.cls-9{fill:#fff;}.cls-10{fill:url(#linear-gradient);}.cls-11{fill:url(#linear-gradient-2);}.cls-12{fill:url(#linear-gradient-3);}.cls-13{fill:url(#linear-gradient-4);}.cls-14{fill:url(#linear-gradient-5);}.cls-15{fill:url(#linear-gradient-6);}.cls-16{fill:url(#linear-gradient-7);}.cls-17{fill:url(#linear-gradient-8);}.cls-18{fill:url(#linear-gradient-9);}.cls-19,.cls-20,.cls-21,.cls-22,.cls-23,.cls-24,.cls-25,.cls-32,.cls-33,.cls-34,.cls-35,.cls-36,.cls-37,.cls-38{mix-blend-mode:screen;}.cls-19{fill:url(#radial-gradient);}.cls-20{fill:url(#radial-gradient-2);}.cls-21{fill:url(#radial-gradient-3);}.cls-22{fill:url(#radial-gradient-4);}.cls-23{fill:url(#radial-gradient-5);}.cls-24{fill:url(#radial-gradient-6);}.cls-25{fill:url(#radial-gradient-7);}.cls-26{fill:#ffd685;}.cls-27{fill:url(#linear-gradient-10);}.cls-28{fill:url(#linear-gradient-11);}.cls-29{fill:url(#linear-gradient-12);}.cls-30{fill:url(#radial-gradient-8);}.cls-31{fill:#972921;}.cls-32{fill:url(#radial-gradient-9);}.cls-33{fill:url(#radial-gradient-10);}.cls-34{fill:url(#radial-gradient-11);}.cls-35{fill:url(#radial-gradient-12);}.cls-36{fill:url(#radial-gradient-13);}.cls-37{fill:url(#radial-gradient-14);}.cls-38{fill:url(#radial-gradient-15);}.cls-39{fill:url(#linear-gradient-13);}</style><clipPath id="clip-path" transform="translate(-62.32 -1429.21)"><circle class="cls-1" cx="455.83" cy="1999.25" r="384.17"/></clipPath><linearGradient id="linear-gradient" x1="3366.7" y1="1888.03" x2="3416.37" y2="1888.03" gradientTransform="matrix(1, -0.03, 0.03, 1, -63.74, 127.67)" gradientUnits="userSpaceOnUse"><stop offset="0.01" stop-color="#ec1900"/><stop offset="0.54" stop-color="#efc87d"/><stop offset="1" stop-color="#ec2307"/></linearGradient><linearGradient id="linear-gradient-2" x1="3380.95" y1="473.37" x2="3423.24" y2="473.37" gradientTransform="matrix(1, 0, 0, 1, 0, 0)" xlink:href="#linear-gradient"/><linearGradient id="linear-gradient-3" x1="3511.73" y1="1922" x2="3560.71" y2="1922" gradientTransform="translate(105.74 -195.76) rotate(2.9)" xlink:href="#linear-gradient"/><linearGradient id="linear-gradient-4" x1="3413.1" y1="1635.42" x2="3407.92" y2="1630.24" gradientTransform="translate(2346.63 -2107.54) rotate(47.75)" xlink:href="#linear-gradient"/><linearGradient id="linear-gradient-5" x1="3364.49" y1="1688.94" x2="3359.3" y2="1683.75" gradientTransform="translate(2358.4 -2068) rotate(47.75)" xlink:href="#linear-gradient"/><linearGradient id="linear-gradient-6" x1="3394.23" y1="1668.17" x2="3377.64" y2="1651.58" gradientTransform="translate(2352.58 -2087.55) rotate(47.75)" xlink:href="#linear-gradient"/><linearGradient id="linear-gradient-7" x1="3716.69" y1="1302.01" x2="3722.98" y2="1302.01" gradientTransform="translate(2236.6 5227.2) rotate(-89.97)" xlink:href="#linear-gradient"/><linearGradient id="linear-gradient-8" x1="3716.65" y1="1229.71" x2="3722.95" y2="1229.71" gradientTransform="translate(2266.49 5168.64) rotate(-89.97)" xlink:href="#linear-gradient"/><linearGradient id="linear-gradient-9" x1="3709.59" y1="1265.47" x2="3730.05" y2="1265.47" gradientTransform="translate(2251.71 5197.6) rotate(-89.97)" xlink:href="#linear-gradient"/><radialGradient id="radial-gradient" cx="-4772.96" cy="1345.03" r="108.2" gradientTransform="matrix(0.24, 0, 0, -3.01, 4525.86, 4519.48)" gradientUnits="userSpaceOnUse"><stop offset="0" stop-color="#f9bd6d"/><stop offset="0.46" stop-color="#84643a" stop-opacity="0.53"/><stop offset="1" stop-opacity="0"/></radialGradient><radialGradient id="radial-gradient-2" cx="-4760.2" cy="1348.18" r="108.2" xlink:href="#radial-gradient"/><radialGradient id="radial-gradient-3" cx="-5064.27" cy="1349.46" r="108.2" gradientTransform="matrix(0.24, 0, 0, -3.01, 4583.41, 5981.04)" xlink:href="#radial-gradient"/><radialGradient id="radial-gradient-4" cx="-7410.31" cy="920.06" r="123.79" gradientTransform="matrix(0, 0.08, 0.5, 0, 2939.04, 2099.05)" xlink:href="#radial-gradient"/><radialGradient id="radial-gradient-5" cx="-7.33" cy="797.48" r="123.79" gradientTransform="matrix(-0.08, 0, 0, 0.5, 3519.55, 1078.51)" xlink:href="#radial-gradient"/><radialGradient id="radial-gradient-6" cx="-4446.81" cy="1344" r="108.2" gradientTransform="matrix(0.01, 0.24, 3.01, 0, -482.62, 2931.21)" xlink:href="#radial-gradient"/><radialGradient id="radial-gradient-7" cx="-6797.63" cy="1752.51" r="80.04" gradientTransform="matrix(0, -0.17, 1.66, 0, 490.59, -402.1)" gradientUnits="userSpaceOnUse"><stop offset="0" stop-color="#fff"/><stop offset="0.19" stop-color="#e8f6ff" stop-opacity="0.74"/><stop offset="0.54" stop-color="#bfe6ff" stop-opacity="0.27"/><stop offset="0.61" stop-color="#9fbfd4" stop-opacity="0.22"/><stop offset="1" stop-opacity="0"/></radialGradient><linearGradient id="linear-gradient-10" x1="2670.29" y1="2337.74" x2="2670.29" y2="2186.82" gradientTransform="matrix(1, 0, 0, -1, 0, 4606.82)" gradientUnits="userSpaceOnUse"><stop offset="0" stop-color="#efc87d"/><stop offset="1" stop-color="#eca554"/></linearGradient><linearGradient id="linear-gradient-11" x1="2670.29" y1="2186.82" x2="2670.29" y2="2296.11" gradientTransform="matrix(1, 0, 0, -1, 0, 4606.82)" gradientUnits="userSpaceOnUse"><stop offset="0" stop-color="#cc7900"/><stop offset="1" stop-color="#ffc67b"/></linearGradient><linearGradient id="linear-gradient-12" x1="1307.9" y1="2210.88" x2="1308.82" y2="2441.37" gradientUnits="userSpaceOnUse"><stop offset="0.32" stop-color="#972921"/><stop offset="0.51" stop-color="#d9464b"/><stop offset="0.68" stop-color="#972921"/></linearGradient><radialGradient id="radial-gradient-8" cx="834.69" cy="2370.91" r="62.89" gradientTransform="translate(-62.32 -801.8) scale(1 0.72)" gradientUnits="userSpaceOnUse"><stop offset="0" stop-color="#3d3d3d"/><stop offset="1"/></radialGradient><radialGradient id="radial-gradient-9" cx="2720.1" cy="1731.8" r="80.04" gradientTransform="translate(1589.3 7797.89) rotate(180) scale(0.29 4.18)" xlink:href="#radial-gradient-7"/><radialGradient id="radial-gradient-10" cx="769.24" cy="1731.8" r="80.04" gradientTransform="translate(1589.3 7797.89) rotate(180) scale(0.29 4.18)" xlink:href="#radial-gradient-7"/><radialGradient id="radial-gradient-11" cx="-130.48" cy="1733.39" r="80.04" gradientTransform="translate(1589.3 5248.73) rotate(180) scale(0.29 2.71)" xlink:href="#radial-gradient-7"/><radialGradient id="radial-gradient-12" cx="-1916.54" cy="1732.91" r="80.04" gradientTransform="translate(1589.3 5807.35) rotate(180) scale(0.29 3.03)" xlink:href="#radial-gradient-7"/><radialGradient id="radial-gradient-13" cx="-2774.21" cy="1640.15" r="80.04" gradientTransform="matrix(0, 0.29, -11.91, 0, 22107.33, 1651.47)" xlink:href="#radial-gradient"/><radialGradient id="radial-gradient-14" cx="-2099.09" cy="1694.07" r="84.57" gradientTransform="matrix(0, 0.29, -21.29, 0, 38003.18, 1651.47)" gradientUnits="userSpaceOnUse"><stop offset="0" stop-color="#95fc00"/><stop offset="0.47" stop-color="#4e8400" stop-opacity="0.52"/><stop offset="1" stop-opacity="0"/></radialGradient><radialGradient id="radial-gradient-15" cx="-3399.38" cy="1545.06" r="80.04" gradientTransform="matrix(0, 0.29, -2.11, 0, 6204.9, 1782.9)" xlink:href="#radial-gradient-7"/><linearGradient id="linear-gradient-13" x1="2000" y1="1498.51" x2="2000" y2="1530.74" gradientTransform="matrix(1, 0, 0, -1, -62.32, 2572.79)" gradientUnits="userSpaceOnUse"><stop offset="0" stop-color="#32af00"/><stop offset="1" stop-color="#9f0"/></linearGradient></defs><title>CG_LOGO</title><g class="cls-2"><g id="Layer_1" data-name="Layer 1"><circle class="cls-3" cx="384.17" cy="547.36" r="384.17"/><circle class="cls-4" cx="351.49" cy="581.38" r="336.81"/><circle class="cls-5" cx="314.81" cy="627.4" r="274.79"/><circle class="cls-6" cx="266.12" cy="685.42" r="202.09"/><g class="cls-7"><circle class="cls-8" cx="512.37" cy="739.75" r="442.94"/><circle class="cls-8" cx="474.95" cy="682.65" r="442.94"/></g><path class="cls-9" d="M683.64,2100.41c-.91,1.73-1.7,3.34-2.37,4.85s-1.48,3.13-2.38,4.85q-27.79,50.43-78.62,81.14t-124,30.71q-58.31,0-106.07-18.43t-81.33-50.1A220.88,220.88,0,0,1,237,2079.07q-18.3-42.68-18.3-91.16T236,1896.75a217.83,217.83,0,0,1,49.48-74.36q32.18-31.67,77.26-50.11t100.65-18.42a140.77,140.77,0,0,1,35.25,4.2,143,143,0,0,1,29.48,11,156.51,156.51,0,0,1,23.38,14.55,206.49,206.49,0,0,1,16.95,14.22v-36.2H674.15v163.57H568.42a89.47,89.47,0,0,0-10.51-34.59,83.45,83.45,0,0,0-49.14-40.08,78.92,78.92,0,0,0-30.5-3.56,87.68,87.68,0,0,0-33.55,9.38q-15.93,8.09-27.79,24.57t-19,42.67q-7.12,26.18-7.12,64.33t8.81,62.71q8.81,24.59,22.37,39.12t29.82,21.34a122.5,122.5,0,0,0,31.18,8.73q38.63,5.18,70.49-7.76t58.28-48.49Z" transform="translate(-62.32 -1429.21)"/><path class="cls-9" d="M1312.57,2125v89.22h-162q-6.11-12.91-13.56-28.45-6.78-12.91-15.58-30.71t-18.3-37.17q-10.17-19.39-18-33a134,134,0,0,0-15.25-22,47.61,47.61,0,0,0-16.26-12.29q-8.82-3.87-21-3.87h-18.3V2125h50.15v89.22H813.05V2125h49.48V1851.49H813.05v-89.87H1064.5v.64a60,60,0,0,0,6.44-.32,62.52,62.52,0,0,1,6.44-.32q46.08,0,81,10.34t58.29,28.45q23.38,18.1,35.25,43t11.86,54.63q0,29.74-21,58.19t-59.65,44.61q27.11,11,40.67,30.71t25.75,48.82q3.39,7.11,7.8,19.07t9.83,25.54ZM1109.24,1904.5q0-29.73-13.22-41.37t-31.52-11.64h-50.15v105.39h50.15q18.3,0,31.52-11.64T1109.24,1904.5Z" transform="translate(-62.32 -1429.21)"/><path class="cls-9" d="M1588.42,2125h50.15v89.22H1380.34V2125h49.48V1851.49h-49.48v-89.87h258.23v89.87h-50.15Z" transform="translate(-62.32 -1429.21)"/><path class="cls-9" d="M2153,2100.41c-.91,1.73-1.69,3.34-2.37,4.85s-1.47,3.13-2.37,4.85q-27.8,50.43-78.62,81.14t-124,30.71q-58.3,0-106.08-18.43t-81.33-50.1a220.88,220.88,0,0,1-51.85-74.36q-18.3-42.68-18.3-91.16t17.28-91.16a218.11,218.11,0,0,1,49.48-74.36q32.19-31.67,77.27-50.11t100.65-18.42a140.68,140.68,0,0,1,35.24,4.2,142.83,142.83,0,0,1,29.48,11,156.12,156.12,0,0,1,23.39,14.55,206.17,206.17,0,0,1,16.94,14.22v-36.2h105.74v163.57H2037.78a89.46,89.46,0,0,0-10.5-34.59,83.45,83.45,0,0,0-49.14-40.08,78.94,78.94,0,0,0-30.5-3.56,87.63,87.63,0,0,0-33.55,9.38q-15.93,8.09-27.79,24.57t-19,42.67q-7.11,26.18-7.11,64.33t8.81,62.71q8.79,24.59,22.36,39.12t29.83,21.34a122.55,122.55,0,0,0,31.17,8.73q38.64,5.18,70.49-7.76t58.29-48.49Z" transform="translate(-62.32 -1429.21)"/><path class="cls-9" d="M2693.86,2018.94V2214.2h-85.4l-25.75-23.27q-18.3,11-43.38,19.39-36.6,11.64-80.66,11.64-59,0-105.39-18.43t-79-50.1a215.49,215.49,0,0,1-49.82-74.36q-17.28-42.68-17.28-91.16t16.6-91.16a219.34,219.34,0,0,1,47.45-74.36q30.83-31.67,74.89-50.11t99-18.42a140.68,140.68,0,0,1,35.24,4.2,142.83,142.83,0,0,1,29.48,11,156.12,156.12,0,0,1,23.39,14.55q10.17,7.76,17.62,14.22v-36.2h105.06v163.57H2550.85A86.3,86.3,0,0,0,2540,1890.6a89.42,89.42,0,0,0-21.35-25.21,85.24,85.24,0,0,0-28.13-14.87A78.94,78.94,0,0,0,2460,1847a87.63,87.63,0,0,0-33.55,9.38q-15.93,8.09-27.79,24.57t-18.64,42.67q-6.78,26.18-6.78,64.33t8.81,63.68q8.8,25.56,22.37,41.38t29.48,23.28a105,105,0,0,0,30.84,9.37q40.67,7.13,74.56-9.69v-27.16h-28.47v-69.83Z" transform="translate(-62.32 -1429.21)"/><path class="cls-10" d="M3408.63,2215.1l-14.86.4c-7.57.21-13.91-4.65-14.16-10.86l-24.32-603c-.25-6.21,5.68-11.4,13.25-11.61l14.86-.4c7.57-.2,13.91,4.66,14.16,10.86l24.32,603C3422.13,2209.7,3416.2,2214.9,3408.63,2215.1Z" transform="translate(-62.32 -1429.21)"/><rect class="cls-11" x="3380.95" y="160.47" width="42.3" height="625.79" rx="12.83"/><path class="cls-12" d="M3528.38,2215.38l-14.85-.61c-7.56-.32-13.38-5.6-13-11.8l37.21-602.54c.38-6.2,6.82-11,14.39-10.66l14.85.62c7.56.31,13.39,5.59,13,11.79l-37.21,602.54C3542.39,2210.92,3536,2215.7,3528.38,2215.38Z" transform="translate(-62.32 -1429.21)"/><rect class="cls-13" x="3420.15" y="1511.68" width="22" height="6.29" transform="translate(-332.17 693.99) rotate(-33.16)"/><rect class="cls-14" x="3359.62" y="1551.22" width="22" height="6.29" transform="translate(-363.65 667.33) rotate(-33.16)"/><rect class="cls-15" x="3368.73" y="1524.59" width="63.66" height="20.43" transform="matrix(0.84, -0.55, 0.55, 0.84, -348.08, 680.51)"/><rect class="cls-16" x="3529.26" y="1504.8" width="22" height="6.29" transform="translate(2622.97 -3673.11) rotate(54.09)"/><rect class="cls-17" x="3486.86" y="1446.24" width="22" height="6.29" transform="translate(2558.01 -3662.98) rotate(54.09)"/><rect class="cls-18" x="3487" y="1468.13" width="63.66" height="20.43" transform="translate(2590.14 -3667.99) rotate(54.09)"/><ellipse class="cls-19" cx="3399.3" cy="470.23" rx="25.54" ry="325.74"/><ellipse class="cls-20" cx="3402.31" cy="460.74" rx="25.54" ry="325.74"/><ellipse class="cls-21" cx="3388.79" cy="1900.76" rx="25.53" ry="325.84" transform="translate(-139.23 -1285.08) rotate(-2.41)"/><ellipse class="cls-22" cx="3402.51" cy="1533.08" rx="62.36" ry="9.45" transform="translate(-356.73 614.02) rotate(-32.11)"/><ellipse class="cls-23" cx="3520.11" cy="1480.23" rx="9.45" ry="62.36" transform="translate(-266.36 895.4) rotate(-35.58)"/><ellipse class="cls-24" cx="3543.8" cy="1881.84" rx="325.97" ry="25.52" transform="translate(1372.29 3866.01) rotate(-86.26)"/><ellipse class="cls-25" cx="3398.85" cy="785.81" rx="132.83" ry="13.99"/><path class="cls-9" d="M3595.3,1761.62q46.08,0,82,11.63t60.32,32q24.4,20.37,37.28,47.2a132,132,0,0,1,12.88,57.86,141.62,141.62,0,0,1-11.86,57.87,134.08,134.08,0,0,1-35.25,47.2q-23.37,20.37-58.28,32t-81,11.64h-63v65.3h50.15v89.87H3337.07v-89.87h49.48V1851.49h-49.48v-89.87Zm-6.78,208.19q18.3,0,31.52-13.26t13.22-46.23q0-33-13.22-45.9a43.51,43.51,0,0,0-31.52-12.93h-50.15v118.32Z" transform="translate(-62.32 -1429.21)"/><path class="cls-9" d="M3276.07,1851.49h-48.8v136.42q0,48.49-13.55,91.16t-41,74.36q-27.45,31.68-68.79,50.1T3007,2222q-55.57,0-97.93-18.43t-70.83-50.1q-28.47-31.68-43-74.36t-14.57-91.16V1851.49h-48.8v-89.87h258.23v89.87h-48.8v136.42q0,38.79,4.75,65t13.21,42.35q8.48,16.17,20.67,23.27a55.26,55.26,0,0,0,54.23,0q12.19-7.11,20.67-23.27t13.21-42.35q4.74-26.19,4.75-65V1851.49h-48.8v-89.87h252.13Z" transform="translate(-62.32 -1429.21)"/><path class="cls-26" d="M1076.34,2344.16c-.77.41-1.54.82-2.34,1.22" transform="translate(-62.32 -1429.21)"/><path class="cls-27" d="M1729.15,2370.05s23.65-24.09,0-87.43l1876.63-13.53,5.65,41.63s-214.79,41.63-265.66,52-50.87,15.61-395.66,46.83L2831.41,2420Z" transform="translate(-62.32 -1429.21)"/><path class="cls-28" d="M1729.15,2370.05l12.44-38.36,1869.84-21s-214.79,41.63-265.66,52-50.87,15.61-395.66,46.83L2831.41,2420Z" transform="translate(-62.32 -1429.21)"/><path class="cls-29" d="M870.07,2362.76h847.84l11.31,7.8s39.56-36.42,0-88.46l-11.31,5.2-847.84,2.6Z" transform="translate(-62.32 -1429.21)"/><rect class="cls-30" x="728.17" y="841.82" width="88.39" height="110.61" rx="29.76"/><rect class="cls-31" x="845.19" y="860.55" width="3.73" height="72.7"/><rect class="cls-31" x="873.82" y="860.55" width="3.73" height="72.7"/><rect class="cls-31" x="902.45" y="860.55" width="3.73" height="72.7"/><rect class="cls-31" x="931.09" y="860.55" width="3.73" height="72.7"/><rect class="cls-31" x="959.72" y="860.55" width="3.73" height="72.7"/><rect class="cls-31" x="988.35" y="860.55" width="3.73" height="72.7"/><rect class="cls-31" x="1016.99" y="860.55" width="3.73" height="72.7"/><rect class="cls-31" x="1045.62" y="860.55" width="3.73" height="72.7"/><rect class="cls-31" x="1074.25" y="860.55" width="3.73" height="72.7"/><rect class="cls-31" x="1102.88" y="860.55" width="3.73" height="72.7"/><rect class="cls-31" x="1131.52" y="859.66" width="3.73" height="73.59"/><rect class="cls-31" x="1160.15" y="859.66" width="3.73" height="73.59"/><rect class="cls-31" x="1188.78" y="859.66" width="3.73" height="73.59"/><rect class="cls-31" x="1217.41" y="859.66" width="3.73" height="73.59"/><rect class="cls-31" x="1246.05" y="859.66" width="3.73" height="73.59"/><rect class="cls-31" x="1274.68" y="859.66" width="3.73" height="73.59"/><rect class="cls-31" x="1303.31" y="859.66" width="3.73" height="73.59"/><rect class="cls-31" x="1331.94" y="859.66" width="3.73" height="73.59"/><rect class="cls-31" x="1360.58" y="859.66" width="3.73" height="73.59"/><rect class="cls-31" x="1389.21" y="859.66" width="3.73" height="73.59"/><rect class="cls-31" x="1417.84" y="858.77" width="3.73" height="74.48"/><rect class="cls-31" x="1446.47" y="858.77" width="3.73" height="74.48"/><rect class="cls-31" x="1475.11" y="858.77" width="3.73" height="74.48"/><rect class="cls-31" x="1503.74" y="858.77" width="3.73" height="74.48"/><rect class="cls-31" x="1532.37" y="858.77" width="3.73" height="74.48"/><rect class="cls-31" x="1561" y="858.77" width="3.73" height="74.48"/><rect class="cls-31" x="1589.64" y="858.77" width="3.73" height="74.48"/><rect class="cls-31" x="1618.27" y="858.77" width="3.73" height="74.48"/><rect class="cls-31" x="1646.9" y="858.77" width="3.73" height="74.48"/><ellipse class="cls-32" cx="799.59" cy="558.06" rx="23.24" ry="334.61"/><ellipse class="cls-33" cx="1365.97" cy="558.06" rx="23.24" ry="334.61"/><ellipse class="cls-34" cx="1627.18" cy="558.06" rx="23.24" ry="216.59"/><ellipse class="cls-35" cx="2145.71" cy="558.06" rx="23.24" ry="242.46"/><ellipse class="cls-36" cx="2579.71" cy="846.06" rx="952.96" ry="23.24"/><ellipse class="cls-37" cx="1937.68" cy="1042.06" rx="1800.5" ry="24.55"/><ellipse class="cls-38" cx="2947.44" cy="795.99" rx="168.75" ry="23.24"/><polygon class="cls-39" points="3861.49 1074.28 41.74 1074.28 13.86 1042.05 3833.62 1042.05 3861.49 1074.28"/></g></g></svg>